<svg width="18" height="19" viewBox="0 0 18 19" fill="none" xmlns="http://www.w3.org/2000/svg">
<path d="M2.25 15.75V12.7969H3.09375V14.9062H5.20312V15.75H2.25ZM12.7969 15.75V14.9062H14.9062V12.7969H15.75V15.75H12.7969ZM9 14.0625C7.596 14.0625 6.40125 13.5697 5.41575 12.5842C4.43025 11.5987 3.9375 10.404 3.9375 9C3.9375 7.596 4.43025 6.40125 5.41575 5.41575C6.40125 4.43025 7.596 3.9375 9 3.9375C10.404 3.9375 11.5987 4.43025 12.5842 5.41575C13.5697 6.40125 14.0625 7.596 14.0625 9C14.0625 10.404 13.5697 11.5987 12.5842 12.5842C11.5987 13.5697 10.404 14.0625 9 14.0625ZM9 13.2188C10.1672 13.2188 11.1623 12.8073 11.9852 11.9843C12.8081 11.1614 13.2193 10.1666 13.2188 9C13.2182 7.83337 12.8067 6.83859 11.9843 6.01566C11.162 5.19272 10.1672 4.78125 9 4.78125C7.83281 4.78125 6.83803 5.19272 6.01566 6.01566C5.19328 6.83859 4.78181 7.83337 4.78125 9C4.78069 10.1666 5.19216 11.1617 6.01566 11.9852C6.83916 12.8087 7.83394 13.2199 9 13.2188ZM2.25 5.20312V2.25H5.20312V3.09375H3.09375V5.20312H2.25ZM14.9062 5.20312V3.09375H12.7969V2.25H15.75V5.20312H14.9062Z" fill="black"/>
</svg>
