<svg width="86" height="85" viewBox="0 0 86 85" fill="none" xmlns="http://www.w3.org/2000/svg">
<path d="M39.9794 0.0992346C58.2867 -1.3072 74.2636 12.4015 75.6547 30.7095C77.0467 49.0174 63.3251 64.9834 45.0158 66.3602C26.7277 67.7352 10.784 54.0327 9.39401 35.7458C8.00411 17.4588 21.6936 1.50395 39.9794 0.0992346ZM62.0968 44.1113C60.1652 42.9843 58.2181 41.7779 56.2837 40.6778C55.5978 40.2718 53.8388 39.2948 53.3378 38.8043C48.3578 47.1182 35.6147 45.0007 33.3114 35.6806C32.6431 32.9734 33.0785 30.1115 34.5214 27.7255C36.051 25.1957 38.5207 23.3751 41.3898 22.6625C44.2234 21.9615 47.2194 22.418 49.7156 23.931C50.9056 24.6552 52.3616 25.9454 53.1049 27.1275C54.9896 25.876 57.1718 24.7403 59.1217 23.5702C59.9283 23.0859 61.2252 22.4426 61.9487 21.8909C61.0451 20.7788 60.4186 19.9142 59.3942 18.8824C55.8905 15.3446 51.274 13.1235 46.323 12.5938C45.5616 12.5158 43.0895 12.4204 42.3507 12.5412C38.5226 12.9522 35.4815 13.8487 32.222 15.9878C20.5084 23.675 19.5928 40.5549 30.6578 49.3387C35.0916 52.8858 40.7622 54.5078 46.401 53.8416C52.0425 53.2245 57.2056 50.3841 60.746 45.9492C61.2124 45.3483 61.6624 44.7355 62.0968 44.1113Z" fill="#87FF8E"/>
<path d="M78.4719 72.7198C80.2206 72.6863 80.7766 73.1998 81.9574 74.1808C82.1769 73.9182 82.1083 73.2153 82.2665 73.1159C82.689 72.8495 84.5008 72.921 85.0121 72.9151C85.0633 73.9466 85.0084 75.2409 85.0167 76.2967C85.0386 79.0019 84.9682 81.7384 85.0258 84.441C84.1222 84.3824 83.0777 84.3952 82.1641 84.3925C82.0717 84.0138 82.0031 83.595 81.9327 83.2081C81.6711 83.4879 81.4416 83.6782 81.1498 83.9251C79.2968 85.0327 76.7452 84.7492 75.0687 83.4322C73.845 82.4563 73.0676 81.0284 72.9121 79.4716C72.5152 75.8577 74.9059 73.0946 78.4719 72.7198ZM79.4039 81.7649C81.0904 81.5179 82.2619 79.9572 82.0269 78.2694C81.7918 76.5816 80.2398 75.3996 78.5505 75.6228C76.8439 75.8481 75.6486 77.4194 75.8854 79.1236C76.1223 80.828 77.7018 82.0136 79.4039 81.7649Z" fill="#87FF8E"/>
<path d="M17.5599 72.6564C20.8726 72.4933 23.695 75.036 23.8773 78.3476C24.0596 81.6594 21.5333 84.4965 18.2228 84.6977C14.885 84.9007 12.0193 82.349 11.8354 79.0105C11.6517 75.6716 14.22 72.8207 17.5599 72.6564ZM18.4 81.7354C20.066 81.4372 21.1822 79.8544 20.9044 78.1847C20.6265 76.5151 19.0578 75.3792 17.3848 75.6363C16.2839 75.8054 15.3592 76.5537 14.9638 77.5949C14.5685 78.6363 14.7638 79.8097 15.475 80.6668C16.1863 81.5241 17.3036 81.932 18.4 81.7354Z" fill="#87FF8E"/>
<path d="M59.6209 72.7251C62.6885 72.8174 64.7701 74.662 65.4011 77.6894C65.5127 78.2275 65.6371 78.8508 65.3627 79.3573C64.9685 79.7128 62.6692 79.5817 62.0336 79.5783L56.5406 79.5457C57.9463 82.5442 60.2602 82.4939 62.6967 80.7091L63.411 81.2829C63.7658 81.5701 64.2506 81.8244 64.4628 82.193C64.4728 82.4463 64.4929 82.5533 64.3018 82.7673C62.2687 85.0565 58.1814 85.2029 55.851 83.2832C54.6644 82.3036 53.9173 80.8923 53.7745 79.3605C53.5164 76.5418 54.909 73.9736 57.6765 73.042C58.3231 72.8244 58.9478 72.7843 59.6209 72.7251ZM56.5845 77.5279C57.6528 77.4332 58.9899 77.4659 60.081 77.4648C60.8117 77.4659 61.8214 77.4396 62.5284 77.4927C62.051 76.6117 61.5946 75.9037 60.5529 75.5988C60.1551 75.4787 59.7407 75.4262 59.3264 75.4434C57.7689 75.8106 57.4991 76.2486 56.5845 77.5279Z" fill="#87FF8E"/>
<path d="M35.3952 72.9131L35.5756 72.9579C35.7013 73.2148 35.6297 83.3686 35.6697 84.4844C34.8489 84.3939 33.1567 84.6152 32.7094 84.1616C32.5353 83.8534 32.6129 83.4436 32.6419 83.0778C31.147 85.1027 28.0701 85.2435 26.2419 83.5762C24.6673 82.1413 24.9269 79.1956 24.9251 77.1879C24.9749 75.9385 24.9071 74.2735 24.928 72.9468C25.9186 72.9612 26.9613 72.9372 27.9561 72.9304C28.0149 75.1214 27.9094 77.4326 27.9444 79.6366C27.9961 82.8912 32.3515 82.5428 32.5261 79.8735C32.6624 77.7908 32.731 75.0072 32.5464 72.9161C33.4656 72.9737 34.468 72.9324 35.3952 72.9131Z" fill="#87FF8E"/>
<path d="M47.437 72.7092C49.3921 72.5106 51.155 73.0347 52.4586 74.5613C52.6448 74.7793 52.6887 74.8306 52.6663 75.1102C52.3329 75.4126 50.7429 76.2284 50.2582 76.501C49.9249 76.1674 49.3706 75.5626 48.9434 75.4223C48.1927 75.1757 47.0921 75.1765 46.7518 76.0247C46.9213 77.0169 49.3221 77.422 50.3304 77.7629C52.9829 78.6597 54.0887 80.9847 52.1987 83.3088C51.348 84.355 49.6303 84.559 48.2636 84.6011C45.9614 84.5471 44.344 84.1227 43.1797 81.9716C43.8726 81.4668 45.0483 80.9015 45.8193 80.5387C46.659 81.6406 47.2024 82.1061 48.6877 82.0201C49.307 81.9844 49.9694 81.7146 49.9307 80.9949C49.1556 79.6152 44.0606 79.8782 43.752 76.8858C43.4725 74.1751 45.0258 73.1216 47.437 72.7092Z" fill="#87FF8E"/>
<path d="M5.71305 72.7225C5.87183 72.7158 6.03078 72.7141 6.18965 72.7176C8.62482 72.7603 9.74464 73.7354 11.3226 75.3716C10.4696 75.9675 9.62053 76.4989 8.65994 76.9041C7.37047 75.6067 5.73866 75.0076 4.15679 76.2716C3.49875 76.8043 3.08444 77.5807 3.00835 78.424C2.93097 79.2411 3.20782 80.0371 3.73627 80.6596C4.26252 81.2887 5.02053 81.6793 5.83863 81.7424C7.13341 81.843 7.95644 81.1338 8.85118 80.3573C9.11266 80.5065 9.43322 80.6598 9.70568 80.7985C10.1913 81.1385 10.8374 81.479 11.3625 81.7744C11.1223 82.0954 10.8779 82.4109 10.6105 82.71C8.58303 84.9754 4.75813 85.2452 2.33915 83.4069C1.08333 82.4475 0.260017 81.0283 0.0506687 79.462C-0.156668 77.8794 0.277578 76.2796 1.25664 75.0191C2.47368 73.4539 3.86074 72.9683 5.71305 72.7225Z" fill="#87FF8E"/>
<path d="M72.5617 72.6177L72.7519 72.6566C73.0052 73.1438 72.5781 74.7238 72.4409 75.3533C71.7943 75.4441 70.5587 75.6053 70.1728 76.1981C69.3213 77.5059 69.6432 79.7477 69.6039 81.2554C69.5774 82.256 69.5554 83.4733 69.6515 84.4098C68.8585 84.3805 67.5205 84.5186 66.7239 84.3394C66.6159 84.3147 66.6013 84.1793 66.5537 84.0467C66.572 83.5583 66.5757 83.0269 66.5656 82.5386C66.5053 79.3714 66.6781 76.1161 66.5254 72.9554L69.6396 72.9403L69.4768 74.3378C70.4855 73.1257 71.0544 72.9014 72.5617 72.6177Z" fill="#87FF8E"/>
<path d="M42.916 72.6284L43.072 72.6375C43.311 73.0367 42.8627 74.7598 42.7426 75.269C42.5095 75.3435 42.0426 75.4624 41.7977 75.4939C39.5002 75.7899 39.8863 78.7532 39.8771 80.4762C39.8707 81.6482 39.8128 83.1801 39.9398 84.4001C39.3626 84.4139 37.2485 84.5684 36.8664 84.2547L36.896 84.006L36.8983 76.8969C36.8954 75.8239 36.9468 73.9132 36.7988 72.9233C37.8189 72.9472 38.8393 72.9542 39.8596 72.9441L39.8279 74.2695C40.8898 73.0705 41.3396 72.8484 42.916 72.6284Z" fill="#87FF8E"/>
</svg>
