<svg width="26" height="26" viewBox="0 0 26 26" fill="none" xmlns="http://www.w3.org/2000/svg">
<path d="M8.99851 12.3634L12.3634 8.98967L9.33883 5.95481L7.63135 7.66081L6.5883 6.61776L8.28694 4.91176L5.41119 2.03601L2.03748 5.40971L8.99851 12.3634ZM20.5398 23.9135L23.9135 20.5398L21.0392 17.6641L19.3332 19.3612L18.2917 18.3182L19.9874 16.6122L16.982 13.6156L13.6156 16.9805L20.5398 23.9135ZM18.4626 4.98837L21.0083 7.53264L23.5806 4.96038L21.0275 2.40726L18.4626 4.98837ZM6.12128 24.5058H1.47323V19.8592L7.94662 13.3858L0 5.41119L5.41119 0L13.4241 7.98345L20.005 1.39368C20.1671 1.23064 20.338 1.11327 20.5177 1.04158C20.6975 0.969879 20.889 0.93403 21.0923 0.93403C21.2956 0.93403 21.4871 0.969879 21.6668 1.04158C21.8466 1.11327 22.018 1.23064 22.181 1.39368L24.5853 3.89228C24.7484 4.05434 24.8613 4.22523 24.9242 4.40497C24.987 4.5847 25.018 4.77622 25.017 4.97953C25.016 5.18283 24.9846 5.36846 24.9227 5.53641C24.8608 5.70436 24.7488 5.86936 24.5868 6.03142L18.0604 12.5932L25.9805 20.5678L20.5663 25.979L12.5917 18.0324L6.12128 24.5058Z" fill="#3C1B0B"/>
</svg>
