<svg width="105" height="80" viewBox="0 0 105 80" fill="none" xmlns="http://www.w3.org/2000/svg">
<path d="M61.75 0.0109608C67.2009 0.0745117 72.8566 -0.112679 78.3072 0.123415C78.6529 0.138386 78.9219 1.01336 79.0105 1.3338C80.1091 5.30383 81.2569 9.25562 82.3925 13.2157L88.2083 33.0194C89.1167 36.1504 90.1188 40.8476 91.6576 43.6598C92.2811 44.7997 94.48 45.9065 95.7874 45.864C96.2204 45.8499 97.5916 45.8954 98.0093 45.9736C98.2024 46.23 98.1956 49.7888 98.1462 50.3581C96.7512 50.2 93.7255 50.2801 92.185 50.2794L80.9708 50.2851C80.2457 50.2873 76.8808 50.3607 76.3344 50.1935C75.8556 49.4614 74.7496 44.9308 74.4067 43.7565L65.9112 14.4572L62.7124 3.47897C62.5267 2.82338 61.7963 0.530358 61.75 0.0109608Z" fill="#87FF8E"/>
<path d="M22.3036 0.0325314C29.5202 -0.00411387 36.7369 -0.00156189 43.9534 0.0401787C44.26 0.855834 44.4783 1.78471 44.7419 2.62087C45.418 4.76484 45.9923 6.93472 46.5996 9.0989L50.4286 22.2546C51.0378 24.3387 51.8945 28.6253 53.3941 30.2634C54.5169 31.49 56.5754 31.7805 58.2198 31.7633C58.0443 32.1789 57.8719 32.6768 57.7553 33.1117C56.5639 37.5543 55.1113 41.9593 53.9162 46.3958C53.6038 47.6841 53.1614 48.9734 52.8352 50.3295C49.5436 50.1597 45.1029 50.2888 41.7293 50.2948C41.2327 48.9531 40.6769 46.8148 40.2692 45.3805L38.4685 39.2566L32.0778 17.1713L30.4049 11.4358C30.1111 10.417 29.8743 9.34924 29.5005 8.35749C29.2047 7.57261 28.8045 6.79581 28.2218 6.18463C25.8917 3.74042 22.9499 4.95393 22.1743 4.38613C22.0314 3.66947 22.1615 2.75158 22.1078 2.00249C22.0548 1.26285 21.6786 0.587102 22.3036 0.0325314Z" fill="#87FF8E"/>
<path d="M3.5662 65.6399C4.36015 65.5852 4.97581 65.5784 5.7657 65.6429C5.97666 66.6505 6.39356 67.454 6.69911 68.3882C7.42044 70.5933 8.72634 73.3674 9.26113 75.5705C10.1973 72.4041 11.3681 69.2513 12.4253 66.1195C12.4787 65.9615 12.6911 65.656 12.857 65.6494C13.6789 65.6171 16.2832 65.5125 16.9302 65.8244L16.9748 66.0104C16.7683 66.3012 15.8695 66.3924 15.5545 66.7875C15.0737 67.3905 15.379 68.0996 15.4717 68.8216L15.8331 71.8039C15.9738 72.926 16.1144 74.0207 16.2667 75.1689C16.396 76.0949 16.3057 77.2562 16.6631 78.1244C16.8801 78.6515 18.259 78.4782 18.2767 79.2028C17.8023 79.5234 12.019 79.5597 11.5974 79.1684C11.7096 78.4796 13.2416 78.5715 13.3936 78.1334C13.7698 77.0495 13.0473 74.1934 12.9622 72.994C12.8928 72.0145 12.8172 71.3961 12.7284 70.6785L12.5104 69.0155C12.1142 70.159 9.12732 79.1259 8.67521 79.4457C8.38464 79.5377 8.34457 79.5301 8.04991 79.4714C7.49019 79.1649 4.2988 70.197 3.8749 68.8733C3.80192 70.0311 3.50544 71.134 3.40531 72.2694C3.28291 74.0705 2.98332 75.847 2.87179 77.6448C2.79844 78.827 4.81308 78.4449 4.81869 79.2069C4.44463 79.4383 0.324347 79.5386 0 79.2219C0.132103 78.4965 1.63078 78.5506 1.74727 77.7891C1.85641 77.0755 1.86088 76.3045 1.95537 75.5774L2.85986 68.3819C3.226 65.4032 1.94662 67.1066 1.1287 66.0585L1.17364 65.9022C1.59416 65.5997 2.98156 65.6504 3.5662 65.6399Z" fill="#87FF8E"/>
<path d="M25.671 45.9006L25.9427 45.9C26.3013 46.3197 26.0796 49.399 26.1936 50.3707C24.7973 50.2004 21.3783 50.2897 19.7891 50.2886L7.40471 50.3019C7.0773 50.3278 6.92708 50.3719 6.68388 50.2108C6.58223 49.6984 6.64229 46.7063 6.64578 45.9542C8.17164 45.8201 10.7247 45.9386 12.3546 45.9165C16.7603 45.8567 21.2691 46.0111 25.671 45.9006Z" fill="#87FF8E"/>
<path d="M82.4287 68.8644C82.5189 68.8525 82.6107 68.8439 82.7017 68.8387C83.8093 68.7768 85.1082 68.8723 85.9707 69.647C86.8528 70.4334 86.9617 71.6296 86.96 72.7331C86.9575 74.5826 86.9192 76.4368 86.9889 78.2843C87.3326 78.2703 88.0556 78.2084 88.3355 78.3493L88.3908 78.531C88.0905 79.3752 85.6398 80.0946 84.9321 79.203C84.5255 78.6899 84.4515 78.6859 84.1342 78.0836C83.7021 78.2878 83.1738 79.0074 82.4151 79.2981C80.4779 80.041 79.2441 79.4402 78.4521 77.6192C77.8793 74.2425 82.2152 74.0875 84.1921 72.9215L84.2252 72.902C83.9956 70.1557 84.3588 68.6867 80.9199 69.897C82.1038 70.8206 82.3402 71.1645 81.5015 72.4865C81.2159 72.5923 80.7753 72.6984 80.4709 72.7817C78.4518 72.2779 78.5297 70.726 80.0434 69.5385C80.7555 68.9797 81.5585 68.9276 82.4287 68.8644ZM81.198 75.3149C81.047 76.1803 80.9212 77.1182 81.7014 77.744C82.1174 77.9193 82.3045 77.9697 82.746 78.0725L84.1776 77.4895C84.1648 76.9973 84.1648 73.9195 84.0704 73.7743L83.9785 73.7722C82.6847 74.3965 82.2569 74.2979 81.198 75.3149Z" fill="#87FF8E"/>
<path d="M22.182 68.8674C22.2828 68.86 22.3837 68.8536 22.4847 68.8485C26.5166 68.6467 26.8763 70.5612 26.7957 74.0161C26.764 75.3772 26.7722 76.9316 26.8212 78.2922C27.2277 78.2674 27.9065 78.1396 28.1814 78.4767C28.1369 79.0382 27.1674 79.3341 26.7004 79.534C26.3385 79.6889 25.861 79.6451 25.4657 79.6283C24.5408 79.1189 24.3803 78.8922 24.0447 77.9398C22.3274 79.7385 21.1477 80.1384 18.9435 78.8542C18.7656 78.5249 18.5767 78.0869 18.4153 77.7406C17.6783 74.5111 21.7898 73.8868 24.0829 72.9802C24.0014 70.1833 24.155 68.6533 20.7885 69.8814C21.1317 70.1603 21.8427 70.6294 21.8745 71.0639C21.9831 72.5463 20.5717 73.2668 19.4594 72.3976C19.1403 72.1447 18.9365 71.7741 18.8937 71.3692C18.7079 69.5996 20.8037 68.9917 22.182 68.8674ZM21.1268 77.25C21.3184 77.4328 21.6172 77.7345 21.814 77.8897C22.6451 78.142 23.2789 77.8455 24.072 77.4882C24.0358 76.6241 24.0978 74.3903 24.0229 73.8101C23.9814 73.8009 23.9024 73.7765 23.8677 73.7834C21.7358 74.6493 20.7077 74.6671 21.1268 77.25Z" fill="#87FF8E"/>
<path d="M67.5876 65.3798C68.6596 65.097 71.0312 65.9781 71.9517 66.5215C71.9961 67.1938 72.1697 69.4143 71.7125 69.8355C70.8061 69.3783 70.3277 65.2994 66.8638 66.4083C63.4183 67.5114 63.6248 72.3645 64.1405 75.1955C64.468 76.9933 66.5819 79.3294 68.5477 78.7266C69.5287 78.4301 70.3542 77.8669 70.8375 76.9496C71.1907 76.5965 71.3383 75.2113 71.9638 74.6786C72.2459 74.5935 72.1251 74.5917 72.422 74.7064C72.5505 75.0782 72.3731 78.0969 72.0446 78.4283C71.2998 79.1797 69.4581 79.4916 68.4385 79.5961C61.3288 80.3251 58.4029 72.8001 62.5151 67.5987C63.744 66.0528 65.6444 65.5084 67.5876 65.3798Z" fill="#87FF8E"/>
<path d="M47.6419 68.8617C47.7303 68.8493 47.8191 68.8396 47.9081 68.8326C51.0327 68.5879 52.1313 70.6066 52.3083 73.3593C50.3002 73.3659 47.6999 73.3921 45.7468 73.3056C45.7887 73.7442 45.8195 74.2515 45.9039 74.6822C46.5649 78.06 49.7549 78.7737 51.957 76.1926L52.1708 76.2373L52.2554 76.4141C52.2354 76.9222 51.801 77.5375 51.5118 77.9419C50.0167 80.0324 47.0695 80.1856 45.1349 78.6297C41.8461 75.9847 43.1309 69.3279 47.6419 68.8617ZM45.754 72.6598C46.5214 72.6539 47.3275 72.6342 48.0913 72.6437L49.7983 72.6305C49.552 71.2349 49.6222 69.4267 47.6891 69.5175C46.0455 70.1819 46.2405 71.1186 45.754 72.6598Z" fill="#87FF8E"/>
<path d="M91.5296 68.8541C92.8081 68.6368 94.3213 69.0079 95.485 69.5524C95.5284 70.0056 95.6806 71.8238 95.2426 72.0414C94.6854 71.7498 94.1444 70.1315 93.4154 69.8046C91.5687 68.977 90.4663 69.6993 90.8873 71.7005C92.3394 72.9207 93.9845 72.8894 95.3897 74.115C95.9614 74.6248 96.2676 75.2603 96.2846 76.0255C96.3433 78.5812 94.4064 79.5825 92.1641 79.631C89.2192 79.4346 88.3524 79.1533 88.6229 75.9936C88.799 75.7927 88.708 75.8406 88.9632 75.8069C89.9695 76.3542 89.6718 79.2814 93.036 78.8501C94.1342 78.1162 94.1274 78.0104 94.0798 76.7608C92.552 74.8075 89.1759 75.3574 88.6612 72.5196C88.2903 70.471 89.5808 69.1807 91.5296 68.8541Z" fill="#87FF8E"/>
<path d="M100.052 68.8445C100.666 68.7079 103.793 68.8771 103.962 69.7935C104.026 70.1435 104.051 71.7947 103.888 72.0688C103.32 72.0868 102.7 70.1237 102.071 69.8439C99.9068 68.8815 99.177 69.7848 99.4407 71.7298C101.305 73.2101 104.622 73.1231 104.767 76.0246C104.897 78.6242 102.985 79.5657 100.683 79.6308C99.0698 79.5578 96.9134 79.4132 97.1371 77.3804C97.1873 76.9261 97.0181 76.4452 97.1371 75.969C97.6781 75.6593 97.8866 76.2117 98.0822 76.6125C99.1072 78.7146 100.598 79.8948 102.576 78.0786C102.596 77.4646 102.605 77.1665 102.526 76.5568C100.969 75.092 97.8347 75.0511 97.2903 72.8729C96.7203 70.5946 97.8355 69.3717 100.052 68.8445Z" fill="#87FF8E"/>
<path d="M31.4141 68.8501C32.764 68.6629 34.2471 68.8832 35.3725 69.6869C35.3875 70.1733 35.521 71.8362 35.1253 72.0841C34.4679 71.791 33.8208 69.2545 32.2296 69.4515C31.7217 69.5144 31.2326 69.6133 30.8198 70.0184C30.5053 70.3271 30.5937 71.3379 30.7835 71.701C31.9415 72.7595 33.8896 73.0414 35.1525 73.961C36.3359 74.8228 36.3998 77.2382 35.4293 78.2834C34.5749 79.241 33.6046 79.5275 32.3974 79.6336C31.3847 79.6506 29.789 79.4018 28.9121 78.8883C28.4568 78.6217 28.3566 76.2557 28.7331 75.8115C29.2347 75.8037 29.8483 77.8081 30.5961 78.3516C31.5813 79.0678 32.5443 79.2245 33.5624 78.4247C33.9724 78.1025 33.8571 77.0718 33.8331 76.6317C32.8492 75.3586 31.17 75.3492 29.8516 74.4511C29.2869 74.0804 28.7169 73.5135 28.6242 72.7932C28.315 70.3933 29.2305 69.2683 31.4141 68.8501Z" fill="#87FF8E"/>
<path d="M76.7732 65.3481C76.8281 65.3495 77.0239 65.4114 77.0249 65.4658C77.1015 69.6396 76.921 73.8417 77.0297 78.0123C77.0417 78.4728 78.2097 78.9619 78.6409 79.2531C77.3334 79.4978 74.8144 79.4327 73.4061 79.4389C73.1269 79.4 73.0391 79.3931 72.873 79.2164C73.0073 78.875 74.1931 78.5259 74.1913 77.6365C74.1885 76.3712 74.1557 75.0954 74.1539 73.829L74.1623 69.2455C74.1651 67.6474 74.5368 67.63 73.1117 66.841C73.0034 66.7811 73.0326 66.6519 73.0442 66.5435C73.452 66.0127 76.0495 65.5161 76.7732 65.3481Z" fill="#87FF8E"/>
<path d="M56.3254 68.7588L56.5546 68.7691C56.7747 69.0998 56.572 71.0797 56.5813 71.7066C56.9325 70.6087 57.5125 69.0204 58.8207 68.7981C59.1672 68.7375 59.5233 68.8197 59.8082 69.026C60.1333 69.2642 60.3468 69.6252 60.399 70.025C60.4578 70.4284 60.3426 70.838 60.0821 71.1517C59.1645 72.2676 58.3132 71.7098 57.4774 70.9983C56.4619 72.2221 56.5811 73.2404 56.6043 74.7958C56.6176 75.6983 56.3483 78.1007 57.0759 78.547C57.4515 78.6251 58.0817 78.7397 58.2247 79.1222C57.7572 79.6928 53.8301 79.3793 52.9669 79.4019C52.7305 79.408 52.6429 79.3217 52.5156 79.15C52.7476 78.6834 53.4615 78.7588 53.6693 78.3392C53.8457 77.9831 53.8418 71.4705 53.7028 71.0283C53.5697 70.6048 52.8196 70.5233 52.6399 70.0503C52.9682 69.6168 55.6585 68.935 56.3254 68.7588Z" fill="#87FF8E"/>
<path d="M40.0127 66.3369L40.237 66.45C40.4974 66.9125 40.3592 68.4887 40.3273 69.0855C40.8914 68.9951 42.6722 68.8892 42.9674 69.42L42.8564 69.5666C42.1328 69.9083 41.1278 69.7978 40.3117 69.775C40.4887 71.9613 40.3504 74.2229 40.4027 76.4221C40.4585 78.7695 41.7584 77.9638 43.2797 77.727L43.3903 77.8127C43.3455 78.0975 42.8359 78.5935 42.6191 78.8037C40.5091 80.1762 37.6587 79.9643 37.5758 76.9606C37.5129 74.679 37.4198 72.0657 37.6008 69.8015C37.2013 69.8174 36.6382 69.9697 36.375 69.6383C36.4841 69.3418 37.1885 68.9291 37.4933 68.7239C38.3746 68.1309 39.1833 66.8389 40.0127 66.3369Z" fill="#87FF8E"/>
</svg>
