<svg width="125" height="69" viewBox="0 0 125 69" fill="none" xmlns="http://www.w3.org/2000/svg">
<path d="M62.3948 43.0038C65.4424 42.8417 68.3014 43.5742 70.2065 46.1284C70.4245 46.4207 70.7007 46.7174 70.9472 46.9888C70.9487 45.8782 70.9744 44.6894 70.8913 43.5874C73.3296 43.5098 75.975 43.5621 78.4202 43.5731C78.2952 48.0068 78.4054 53.0063 78.4029 57.4819L78.401 63.5768C78.4013 64.7751 78.3674 66.1956 78.4524 67.3744C75.9403 67.4105 73.4234 67.3527 70.9087 67.3842C70.9551 66.436 70.9286 65.2967 70.9281 64.3315C70.8846 64.3072 70.8411 64.2829 70.7977 64.2586C70.3911 64.6521 69.6921 65.5063 69.308 65.8617C68.1541 66.894 66.4223 67.695 64.9116 67.9086C58.06 68.8774 52.9642 64.4653 52.1557 57.7225C51.7207 54.0942 52.3547 50.1722 54.6218 47.1502C56.6875 44.3968 59.0894 43.4244 62.3948 43.0038ZM66.1969 61.7638C68.0354 61.3759 69.0912 60.9811 70.151 59.3774C71.1755 57.8273 71.3933 55.3301 70.9555 53.5542C70.1584 50.3207 67.8314 49.1272 64.7894 49.2752C64.0647 49.3919 63.1987 49.5103 62.5639 49.8965C60.3204 51.2615 59.601 53.4367 59.7016 55.9564C59.8536 59.7617 62.3813 62.0882 66.1969 61.7638Z" fill="#87FF8E"/>
<path d="M27.2223 43.5358C28.9421 43.5161 30.6541 43.5744 32.3783 43.5287C32.2287 46.305 32.4748 49.3694 32.2965 52.2072L38.0431 52.2148C39.1271 52.2149 40.527 52.2482 41.5779 52.1628C41.4682 50.2928 41.5844 48.2312 41.5464 46.3442C41.5276 45.406 41.5927 44.5385 41.4745 43.5956C43.4975 43.4521 46.7809 43.5385 48.8461 43.574C48.7658 44.6842 48.8096 46.2456 48.8093 47.3829L48.8083 54.2344L48.7984 62.5202C48.7965 64.1118 48.7563 65.8894 48.8319 67.4684L46.8939 67.4544C45.2228 67.4598 43.1049 67.5018 41.4626 67.3966C41.5802 66.5915 41.543 65.162 41.5445 64.3215C41.5335 62.5664 41.5479 60.8112 41.5879 59.0565C40.6471 58.9633 39.4491 59.0077 38.4923 58.999C36.439 58.9801 34.3423 59.0563 32.2932 58.9857C32.5273 61.3572 32.2599 64.9263 32.3745 67.4726C29.9357 67.4116 27.4473 67.5257 25.005 67.4063C25.0937 66.4725 25.0379 64.5909 25.0373 63.5739L25.0324 56.2868L25.033 48.4002C25.0378 46.9423 25.1062 45.0109 24.998 43.5964C25.7116 43.5574 26.5021 43.5541 27.2223 43.5358Z" fill="#87FF8E"/>
<path d="M25.721 12.5749C27.9128 12.5286 30.2425 12.5625 32.4411 12.5749C32.3523 14.599 32.4769 16.8704 32.4341 18.9231C32.4238 19.4173 32.3983 21.9219 32.4846 22.2714L32.699 22.2757C33.8085 21.6476 39.1056 12.8617 40.3246 12.7042C41.6336 12.5352 46.9798 12.6802 48.7367 12.6082C48.0307 13.6573 46.5409 15.4004 45.7086 16.4247L39.6497 23.8451C40.1151 24.5768 41.2165 25.9596 41.7725 26.7027L45.7339 32.0008C46.0761 32.4656 48.748 36.0399 48.7485 36.2334C48.4797 36.4348 40.0899 36.5183 39.7552 36.1366C37.1085 33.1172 35.0439 28.9825 32.3982 25.9913C32.5424 28.9158 32.4649 33.4437 32.3906 36.4065C30.1402 36.3077 27.3645 36.3772 25.0464 36.3413C24.9272 31.1504 25.0332 25.544 25.0385 20.317L25.0421 15.4132C25.0408 14.7656 24.9969 13.3101 25.0778 12.7652C25.3213 12.5577 25.3405 12.6187 25.721 12.5749Z" fill="#87FF8E"/>
<path d="M9.23329 11.8774C12.7402 11.6835 17.3966 12.15 19.917 14.9488C21.0764 16.2363 21.2227 17.5828 21.4789 19.2228C19.544 19.3809 15.7399 19.262 13.6685 19.2577L13.5025 18.1861L12.5253 17.161C11.4433 16.8797 10.5194 16.9337 9.48517 17.3526C7.0358 20.2049 10.9523 21.0898 12.9559 21.5783C15.458 22.1882 17.9713 22.7445 19.8315 24.6556C22.1156 27.0024 22.0064 31.0473 20.1042 33.5915C18.3722 35.8703 15.1052 36.7257 12.4168 37.0339C7.22028 37.2655 0.347476 35.5911 0 29.3474L4.36079 29.3342C5.28443 29.3323 6.33343 29.2892 7.23597 29.4308C7.49029 29.4708 7.97242 30.3374 8.1583 30.599C8.59083 31.2109 9.25108 31.6232 9.99058 31.7432C11.4705 31.9714 13.9563 30.9796 13.2508 29.0632C13.1451 28.7761 12.6223 28.1598 12.4123 27.8943C9.43347 26.7289 5.52846 26.6306 2.98887 24.6617C1.67426 23.6367 0.829678 22.1239 0.646947 20.4669C-0.0229468 14.8784 4.30455 12.4357 9.23329 11.8774Z" fill="#87FF8E"/>
<path d="M9.40153 42.9176C10.0357 42.8421 10.8265 42.8658 11.4845 42.8885C15.1122 43.0137 19.9742 44.0973 21.0922 48.126C21.2756 48.7866 21.3528 49.5257 21.531 50.2153C20.733 50.2788 14.0573 50.2957 13.7258 50.1218C13.5313 49.8554 13.4898 49.3765 13.4324 49.0359C13.1109 48.7837 12.7388 48.4196 12.433 48.1368C10.9464 47.7078 8.63457 48.0377 8.74451 50.0179C8.76709 50.5097 8.99708 50.9689 9.37747 51.2814C10.5715 52.2821 14.1401 52.7743 15.7642 53.3526C17.1 53.811 18.3966 54.3363 19.4799 55.2729C22.1604 57.5904 22.1665 62.4173 19.8259 64.9545C17.9149 67.0259 15.0855 67.8113 12.3428 67.9659C11.8001 67.9818 11.2572 67.9898 10.7142 67.9899C6.43847 67.9842 0.370509 66.0543 0.03775 60.8772C0.0225711 60.6411 0.0722578 60.5382 0.233376 60.3925C1.03093 60.2868 6.56724 60.341 7.4941 60.4284C8.45636 62.7349 10.0831 63.1989 12.357 62.3918C12.4883 62.2462 12.6167 62.0979 12.742 61.9473C14.7431 59.5511 11.6533 58.4873 9.79142 58.1419C8.46081 57.8951 6.78572 57.3385 5.46635 56.9658C2.97097 56.2607 0.746441 53.9593 0.628881 51.2924C0.111831 45.6433 4.47245 43.4203 9.40153 42.9176Z" fill="#87FF8E"/>
<path d="M64.2261 12.576C66.6849 12.5503 69.1439 12.5577 71.6025 12.598C71.4919 16.4287 71.6536 20.4354 71.5869 24.2803C71.5589 25.8919 71.6631 27.7777 71.537 29.356C72.4143 29.4299 73.6823 29.3666 74.5885 29.3829C77.1819 29.4299 79.8864 29.3013 82.4713 29.4035C82.4875 30.4279 82.596 35.9768 82.3219 36.3971C76.2525 36.4133 70.1829 36.3959 64.1137 36.345C64.0196 34.9098 64.1074 32.2066 64.1099 30.7115L64.1142 19.6145L64.1146 14.4395C64.1147 14.0126 64.0443 12.8821 64.2261 12.576Z" fill="#87FF8E"/>
<path d="M86.8646 12.5832C89.2438 12.5175 91.7957 12.5617 94.1802 12.5712C94.121 13.7427 94.1663 15.3048 94.168 16.5007L94.1724 24.4864C94.1724 26.0537 94.209 27.8322 94.1279 29.3822C97.4854 29.485 101.526 29.3842 104.918 29.3853C105.03 30.8998 104.934 34.4974 104.888 36.1979C104.839 36.26 104.798 36.3132 104.763 36.3575L104.591 36.367C100.411 36.4165 96.2186 36.3717 92.039 36.3884C90.2866 36.3954 88.4696 36.3318 86.7277 36.3803C86.6536 34.2863 86.6998 32.0438 86.6998 29.9346L86.6989 18.9688C86.6998 17.1302 86.6815 14.6806 86.7294 12.7885C86.7835 12.7072 86.8279 12.6387 86.8646 12.5832Z" fill="#87FF8E"/>
<path d="M96.4878 43.2644C97.4712 43.1881 98.0153 43.2426 98.9882 43.3884C98.9586 45.0233 98.847 48.8299 99.0004 50.2657C89.9097 49.396 90.3081 55.5497 90.3421 62.569C90.35 64.13 90.2279 65.8444 90.3831 67.3808C87.8983 67.3941 85.3264 67.3247 82.8538 67.3958C82.8843 66.8846 82.8643 66.2689 82.8599 65.7467L82.8669 51.9633C82.8677 49.2293 82.9218 46.2942 82.8398 43.5726C85.3107 43.5481 87.9341 43.5216 90.3988 43.5937C90.3561 44.0191 90.2697 47.8508 90.3517 48.1223L90.4842 48.1161C90.9219 47.753 91.261 46.3104 91.9794 45.5252C93.3831 43.9905 94.4703 43.4754 96.4878 43.2644Z" fill="#87FF8E"/>
<path d="M52.6714 12.5755C54.923 12.5189 57.313 12.5585 59.5756 12.5634C59.4763 18.1963 59.5721 24.1465 59.5731 29.8002L59.5735 34.1355C59.5731 34.6997 59.7176 36.1152 59.295 36.4157L59.1011 36.3764C56.7827 36.3885 54.4642 36.3843 52.1458 36.3637L52.1376 21.4845C52.1376 18.6898 52.066 15.5232 52.1509 12.7565C52.3429 12.5598 52.3335 12.6182 52.6714 12.5755Z" fill="#87FF8E"/>
<path d="M55.0658 0.0746071C56.6432 -0.217863 58.2558 0.362213 59.2856 1.59247C60.3152 2.82273 60.6022 4.51233 60.0366 6.01364C59.4709 7.51487 58.1402 8.59492 56.5548 8.83974C54.1539 9.21053 51.9 7.58549 51.4931 5.19052C51.0863 2.79556 52.6772 0.517463 55.0658 0.0746071Z" fill="#87FF8E"/>
<path d="M124.596 63.0408C121.304 67.7456 115.386 68.7216 110.041 67.715C102.485 66.2918 99.5301 59.3149 100.95 52.2358C102.699 43.5166 112.493 41.0847 119.825 44.317C121.929 45.2516 123.373 46.788 124.596 48.7455V57.4638L114.233 57.4601C112.242 57.4608 110.074 57.5044 108.097 57.427C108.191 58.8187 108.381 60.0443 109.553 61.0645C111.428 62.6924 115.14 63.0959 117.126 61.5069C117.412 61.2779 118.168 60.5307 118.438 60.4845C120.388 60.1498 122.612 60.3818 124.596 60.3339V63.0408ZM108.039 52.9171L113.916 52.9389L118.631 52.9212C118.388 51.3058 118.235 49.9935 116.786 48.8793C115.825 48.1404 114.168 47.8439 112.966 47.9725C111.443 48.1111 110.183 48.5439 109.135 49.7542C108.327 50.6875 108.2 51.7541 108.039 52.9171Z" fill="#87FF8E"/>
</svg>
