<svg xmlns="http://www.w3.org/2000/svg" viewBox="0 0 91 35"><path d="M 21.601 0 C 18.047 0 14.638 1.412 12.125 3.925 L 3.925 12.126 C 1.412 14.639 0.001 18.046 0 21.599 C 0 29.002 5.999 35 13.399 35 C 16.953 35 20.362 33.588 22.875 31.075 L 28.547 25.403 L 45.075 8.875 C 46.649 7.3 48.927 6.656 51.092 7.175 C 53.256 7.693 54.996 9.298 55.686 11.415 L 60.902 6.199 C 58.443 2.336 54.18 -0.002 49.601 0 C 46.047 0 42.638 1.412 40.125 3.925 L 17.925 26.126 C 15.425 28.625 11.373 28.625 8.874 26.126 C 6.375 23.626 6.375 19.574 8.875 17.075 L 17.075 8.874 C 18.649 7.299 20.927 6.655 23.092 7.174 C 25.257 7.692 26.997 9.298 27.686 11.415 L 32.902 6.2 C 30.443 2.336 26.18 -0.002 21.601 0 Z" fill="var(--token-55b9dbd8-1c89-4689-99b1-e62168496f26, rgb(255, 255, 255)) /* {&quot;name&quot;:&quot;White&quot;} */"/><path d="M 45.925 26.125 C 44.352 27.7 42.073 28.344 39.909 27.826 C 37.744 27.308 36.004 25.703 35.314 23.587 L 30.099 28.802 C 32.558 32.664 36.82 35.001 41.398 35 C 44.952 35 48.361 33.588 50.874 31.075 L 73.074 8.874 C 75.574 6.375 79.626 6.375 82.125 8.874 C 84.624 11.374 84.623 15.426 82.124 17.925 L 73.924 26.126 C 72.35 27.701 70.071 28.345 67.907 27.826 C 65.742 27.308 64.002 25.702 63.313 23.585 L 58.097 28.802 C 60.556 32.665 64.819 35.003 69.399 35 C 72.953 35 76.362 33.588 78.875 31.075 L 87.075 22.874 C 89.588 20.361 90.999 16.954 91 13.402 C 91 5.998 85.001 0 77.601 0 C 74.047 0 70.638 1.412 68.125 3.925 L 45.925 26.126 Z" fill="var(--token-55b9dbd8-1c89-4689-99b1-e62168496f26, rgb(255, 255, 255)) /* {&quot;name&quot;:&quot;White&quot;} */"/></svg>