<svg xmlns="http://www.w3.org/2000/svg" viewBox="0 0 60 40"><path d="M 56.25 1.25 C 56.25 1.94 56.81 2.5 57.5 2.5 L 58.75 2.5 C 59.44 2.5 60 1.94 60 1.25 C 60 0.56 59.44 0 58.75 0 L 57.5 0 C 56.81 0 56.25 0.56 56.25 1.25 Z M 20 40 L 26.072 40 L 24.305 38.232 C 23.836 37.763 23.2 37.5 22.537 37.5 L 20 37.5 C 10.335 37.5 2.5 29.665 2.5 20 C 2.5 10.335 10.335 2.5 20 2.5 L 40 2.5 C 49.665 2.5 57.5 10.335 57.5 20 C 57.5 29.665 49.665 37.5 40 37.5 L 32.518 37.5 C 31.524 37.5 30.57 37.105 29.867 36.402 L 27.796 34.331 C 26.624 33.159 25.034 32.5 23.376 32.5 L 20 32.5 C 13.096 32.5 7.5 26.904 7.5 20 C 7.5 13.096 13.096 7.5 20 7.5 L 40 7.5 C 46.904 7.5 52.5 13.096 52.5 20 C 52.5 26.904 46.904 32.5 40 32.5 L 35.196 32.5 C 34.201 32.5 33.247 32.105 32.544 31.402 L 30.474 29.331 C 29.302 28.159 27.712 27.5 26.054 27.5 L 20 27.5 C 15.858 27.5 12.5 24.142 12.5 20 C 12.5 15.858 15.858 12.5 20 12.5 L 40 12.5 C 44.105 12.511 47.437 15.82 47.479 19.924 C 47.52 24.029 44.254 27.404 40.151 27.498 L 40.151 27.5 L 38.321 27.5 C 37.326 27.5 36.372 27.105 35.669 26.402 L 33.6 24.33 C 32.644 23.374 31.403 22.753 30.064 22.562 L 30 22.5 L 20 22.5 C 18.619 22.5 17.5 21.381 17.5 20 C 17.5 18.619 18.619 17.5 20 17.5 L 40 17.5 C 41.381 17.5 42.5 18.619 42.5 20 C 42.5 21.381 41.381 22.5 40 22.5 L 35 22.5 L 36.768 24.268 C 37.237 24.737 37.872 25 38.535 25 L 40 25 C 42.761 25 45 22.761 45 20 C 45 17.239 42.761 15 40 15 L 20 15 C 17.239 15 15 17.239 15 20 C 15 22.761 17.239 25 20 25 L 29.179 25 C 30.174 25 31.128 25.395 31.831 26.098 L 33.901 28.169 C 35.073 29.342 36.664 30 38.322 30 L 40.626 30 L 40.626 29.98 C 45.896 29.65 50.001 25.28 50 20 C 50 14.477 45.523 10 40 10 L 20 10 C 14.477 10 10 14.477 10 20 C 10 25.523 14.477 30 20 30 L 26.054 30 C 27.049 30 28.003 30.395 28.706 31.098 L 30.776 33.169 C 31.948 34.342 33.539 35 35.197 35 L 40 35 C 48.284 35 55 28.284 55 20 C 55 11.716 48.284 5 40 5 L 20 5 C 11.716 5 5 11.716 5 20 C 5 28.284 11.716 35 20 35 L 23.376 35 C 24.371 35 25.325 35.395 26.028 36.098 L 28.099 38.169 C 29.271 39.341 30.861 40 32.519 40 L 40 40 C 51.046 40 60 31.046 60 20 C 60 8.954 51.046 0 40 0 L 20 0 C 8.954 0 0 8.954 0 20 C 0 31.046 8.954 40 20 40 Z" fill="var(--token-55b9dbd8-1c89-4689-99b1-e62168496f26, rgb(255, 255, 255)) /* {&quot;name&quot;:&quot;White&quot;} */"/></svg>