<svg xmlns="http://www.w3.org/2000/svg" viewBox="0 0 86.275 44"><path d="M 2.23 25.466 L 4.674 25.466 L 4.674 37.449 L 2.23 37.449 Z M 6.092 33.343 C 6.088 31.583 7.146 29.994 8.772 29.318 C 10.397 28.641 12.27 29.012 13.516 30.255 C 14.762 31.499 15.136 33.371 14.463 34.998 C 13.79 36.625 12.203 37.686 10.443 37.686 C 9.286 37.699 8.173 37.247 7.354 36.429 C 6.535 35.612 6.08 34.5 6.092 33.343 Z M 12.332 33.343 C 12.305 32.307 11.448 31.486 10.411 31.503 C 9.374 31.521 8.545 32.372 8.554 33.409 C 8.563 34.445 9.406 35.282 10.443 35.282 C 10.957 35.296 11.453 35.095 11.812 34.727 C 12.171 34.359 12.36 33.857 12.332 33.343 Z" fill="var(--token-55b9dbd8-1c89-4689-99b1-e62168496f26, rgb(255, 255, 255)) /* {&quot;name&quot;:&quot;White&quot;} */"/><path d="M 24.618 29.238 L 24.618 37.042 C 24.618 39.804 22.459 40.969 20.275 40.969 C 18.71 41.085 17.211 40.318 16.39 38.981 L 18.491 37.767 C 18.832 38.455 19.559 38.865 20.325 38.802 C 20.823 38.885 21.333 38.732 21.703 38.388 C 22.073 38.043 22.262 37.546 22.214 37.042 L 22.214 36.284 C 21.632 37.001 20.742 37.398 19.82 37.352 C 17.516 37.352 15.648 35.484 15.648 33.18 C 15.648 30.877 17.516 29.009 19.82 29.009 C 20.742 28.967 21.63 29.362 22.215 30.076 L 22.215 29.262 Z M 22.215 33.18 C 22.248 32.37 21.785 31.62 21.046 31.287 C 20.306 30.954 19.438 31.103 18.853 31.665 C 18.267 32.226 18.082 33.087 18.384 33.84 C 18.686 34.593 19.416 35.086 20.227 35.087 C 20.751 35.124 21.265 34.938 21.644 34.575 C 22.023 34.211 22.23 33.705 22.215 33.18 Z M 26.027 33.343 C 26.024 31.583 27.082 29.994 28.707 29.318 C 30.333 28.641 32.205 29.012 33.452 30.255 C 34.698 31.499 35.071 33.371 34.399 34.998 C 33.726 36.625 32.139 37.686 30.378 37.686 C 29.222 37.699 28.108 37.246 27.29 36.429 C 26.471 35.612 26.016 34.5 26.027 33.343 Z M 32.268 33.343 C 32.242 32.306 31.384 31.484 30.347 31.502 C 29.309 31.519 28.48 32.37 28.489 33.407 C 28.497 34.445 29.341 35.282 30.378 35.282 C 30.889 35.292 31.382 35.088 31.737 34.721 C 32.093 34.353 32.279 33.854 32.252 33.343 Z M 35.861 27.038 C 35.861 26.218 36.525 25.555 37.344 25.555 C 38.163 25.555 38.827 26.218 38.827 27.038 C 38.827 27.857 38.163 28.521 37.344 28.521 C 36.527 28.516 35.865 27.855 35.861 27.038 Z M 36.114 29.238 L 38.558 29.238 L 38.558 37.449 L 36.114 37.449 L 36.114 29.238 Z M 49.214 33.343 C 49.273 34.44 48.893 35.514 48.157 36.329 C 47.422 37.144 46.392 37.633 45.295 37.686 C 44.372 37.73 43.477 37.363 42.851 36.684 L 42.851 40.757 L 40.407 40.757 L 40.407 29.238 L 42.851 29.238 L 42.851 30.012 C 43.477 29.333 44.372 28.966 45.295 29.01 C 46.39 29.062 47.42 29.549 48.155 30.363 C 48.891 31.176 49.272 32.249 49.214 33.344 Z M 46.769 33.343 C 46.742 32.277 45.865 31.429 44.798 31.438 C 43.732 31.447 42.869 32.31 42.86 33.377 C 42.851 34.443 43.699 35.32 44.765 35.348 C 45.305 35.382 45.833 35.181 46.214 34.797 C 46.595 34.413 46.792 33.883 46.753 33.343 L 46.77 33.343 Z M 56.823 34.989 C 56.823 36.879 55.193 37.686 53.401 37.686 C 51.937 37.815 50.54 37.041 49.874 35.731 L 52.008 34.517 C 52.187 35.127 52.767 35.531 53.401 35.486 C 53.997 35.486 54.29 35.298 54.29 34.972 C 54.29 34.068 50.216 34.549 50.216 31.714 C 50.216 29.922 51.731 29.018 53.475 29.018 C 54.785 28.978 56.013 29.652 56.684 30.778 L 54.542 31.902 C 54.349 31.462 53.914 31.178 53.434 31.176 C 53.011 31.176 52.749 31.339 52.749 31.64 C 52.782 32.577 56.823 31.951 56.823 34.989 Z M 65.817 29.238 L 65.817 37.449 L 63.373 37.449 L 63.373 36.684 C 62.796 37.374 61.924 37.747 61.026 37.686 C 59.397 37.686 57.955 36.504 57.955 34.28 L 57.955 29.238 L 60.399 29.238 L 60.399 33.922 C 60.356 34.326 60.497 34.729 60.783 35.018 C 61.069 35.306 61.47 35.451 61.874 35.412 C 62.77 35.412 63.398 34.891 63.398 33.726 L 63.398 29.238 Z M 79.944 32.414 L 79.944 37.449 L 77.5 37.449 L 77.5 32.626 C 77.5 31.812 77.102 31.274 76.319 31.274 C 75.538 31.274 75.032 31.852 75.032 32.821 L 75.032 37.449 L 72.588 37.449 L 72.588 32.626 C 72.588 31.812 72.197 31.274 71.406 31.274 C 70.617 31.274 70.127 31.852 70.127 32.821 L 70.127 37.449 L 67.684 37.449 L 67.684 29.238 L 70.127 29.238 L 70.127 29.996 C 70.646 29.316 71.474 28.944 72.327 29.01 C 73.185 28.968 74.001 29.38 74.478 30.093 C 75.032 29.348 75.93 28.938 76.857 29.01 C 78.714 29.01 79.945 30.363 79.945 32.415 Z M 82.03 29.188 C 83.038 29.188 83.855 28.371 83.855 27.364 C 83.855 26.356 83.038 25.539 82.03 25.539 C 81.022 25.539 80.205 26.356 80.205 27.364 C 80.205 28.371 81.022 29.188 82.03 29.188 Z" fill="var(--token-55b9dbd8-1c89-4689-99b1-e62168496f26, rgb(255, 255, 255)) /* {&quot;name&quot;:&quot;White&quot;} */"/><path d="M 29.889 19.249 C 34.609 19.249 38.435 15.423 38.435 10.703 C 38.435 5.983 34.609 2.157 29.889 2.157 C 25.17 2.157 21.343 5.983 21.343 10.703 C 21.343 15.422 25.169 19.249 29.889 19.249 Z" fill="var(--token-55b9dbd8-1c89-4689-99b1-e62168496f26, rgb(255, 255, 255)) /* {&quot;name&quot;:&quot;White&quot;} */"/><path d="M 48.994 19.249 C 53.714 19.249 57.54 15.423 57.54 10.703 C 57.54 5.983 53.714 2.157 48.994 2.157 C 44.274 2.157 40.447 5.983 40.447 10.703 C 40.447 15.422 44.273 19.249 48.994 19.249 Z" fill="var(--token-55b9dbd8-1c89-4689-99b1-e62168496f26, rgb(255, 255, 255)) /* {&quot;name&quot;:&quot;White&quot;} */"/><path d="M 19.331 2.157 L 2.247 2.157 L 2.247 19.241 L 19.331 19.241 Z" fill="var(--token-55b9dbd8-1c89-4689-99b1-e62168496f26, rgb(255, 255, 255)) /* {&quot;name&quot;:&quot;White&quot;} */"/></svg>