<svg xmlns="http://www.w3.org/2000/svg" viewBox="0 0 40 40"><path d="M 22.024 32.112 C 22.061 28.44 21.13 25.454 19.946 25.443 C 18.762 25.431 17.773 28.398 17.738 32.07 C 17.701 35.742 18.632 38.726 19.816 38.738 C 21 38.75 21.989 35.783 22.024 32.111 Z M 15.158 31.278 C 17.174 28.209 18.004 25.194 17.014 24.544 C 16.025 23.894 13.589 25.855 11.574 28.924 C 9.558 31.994 8.726 35.008 9.717 35.658 C 10.706 36.308 13.142 34.346 15.158 31.278 Z M 9.824 26.874 C 13.178 25.382 15.507 23.295 15.026 22.214 C 14.545 21.132 11.435 21.464 8.081 22.957 C 4.726 24.449 2.397 26.535 2.878 27.618 C 3.359 28.699 6.469 28.366 9.823 26.874 Z M 14.624 19.179 C 14.804 18.01 12.008 16.608 8.379 16.049 C 4.75 15.49 1.662 15.986 1.482 17.157 C 1.302 18.327 4.098 19.729 7.726 20.287 C 11.356 20.846 14.443 20.35 14.623 19.179 Z M 15.926 16.392 C 16.71 15.504 15.116 12.814 12.365 10.382 C 9.614 7.951 6.748 6.699 5.964 7.586 C 5.18 8.474 6.774 11.164 9.526 13.596 C 12.276 16.027 15.142 17.279 15.926 16.391 Z M 18.521 14.762 C 19.661 14.44 19.774 11.314 18.774 7.782 C 17.774 4.249 16.04 1.646 14.901 1.969 C 13.762 2.291 13.648 5.417 14.648 8.95 C 15.648 12.482 17.382 15.085 18.521 14.762 Z M 25.566 9.059 C 26.636 5.547 26.585 2.419 25.452 2.075 C 24.318 1.73 22.534 4.298 21.465 7.81 C 20.395 11.322 20.447 14.45 21.58 14.794 C 22.713 15.139 24.498 12.572 25.566 9.058 Z M 30.601 13.805 C 33.399 11.428 35.046 8.77 34.279 7.867 C 33.513 6.965 30.623 8.16 27.825 10.538 C 25.026 12.914 23.38 15.573 24.146 16.475 C 24.914 17.378 27.802 16.182 30.601 13.805 Z M 32.266 20.522 C 35.906 20.034 38.728 18.689 38.57 17.515 C 38.414 16.342 35.336 15.785 31.697 16.271 C 28.058 16.758 25.235 18.104 25.393 19.278 C 25.549 20.451 28.626 21.009 32.266 20.522 Z M 36.96 27.953 C 37.462 26.881 35.175 24.748 31.85 23.19 C 28.526 21.632 25.423 21.238 24.921 22.31 C 24.418 23.382 26.706 25.515 30.03 27.073 C 33.355 28.631 36.458 29.025 36.96 27.953 Z M 29.967 35.864 C 30.97 35.234 30.198 32.203 28.243 29.094 C 26.289 25.986 23.892 23.978 22.89 24.608 C 21.887 25.238 22.659 28.269 24.614 31.377 C 26.568 34.486 28.965 36.494 29.967 35.864 Z" fill="#000000"/></svg>